<?xml version="1.0" standalone="no"?>
<!DOCTYPE svg PUBLIC "-//W3C//DTD SVG 20010904//EN"
 "http://www.w3.org/TR/2001/REC-SVG-20010904/DTD/svg10.dtd">
<svg version="1.0" xmlns="http://www.w3.org/2000/svg"
 width="70.000000pt" height="70.000000pt" viewBox="0 0 70.000000 70.000000"
 preserveAspectRatio="xMidYMid meet">
<metadata>
Created by potrace 1.11, written by Peter Selinger 2001-2013
</metadata>
<g transform="translate(0.000000,70.000000) scale(0.100000,-0.100000)"
fill="#000000" stroke="none">
<path d="M0 350 l0 -350 350 0 350 0 0 350 0 350 -350 0 -350 0 0 -350z m484
78 c-1 -13 -3 -25 -5 -28 -3 -7 -7 -23 -8 -38 0 -7 -6 -10 -11 -7 -6 3 -14 -5
-20 -19 -5 -14 -16 -26 -25 -26 -8 0 -15 -4 -15 -9 0 -5 -25 -8 -55 -6 -55 3
-58 1 -58 -37 0 -10 -4 -18 -8 -18 -5 0 -9 9 -9 20 0 11 -5 20 -11 20 -8 0 -8
5 1 15 7 8 8 15 2 15 -5 0 -12 9 -15 20 -3 11 -1 20 4 20 12 0 11 27 -1 35 -6
4 -17 2 -24 -4 -7 -6 -16 -8 -19 -4 -11 10 -8 20 6 20 35 0 96 14 130 28 20 8
37 11 37 5 0 -6 9 -6 24 0 24 9 36 5 36 -12 0 -5 -4 -6 -10 -3 -5 3 -18 1 -27
-4 -17 -10 -17 -10 0 -11 11 0 15 -5 11 -11 -4 -8 0 -8 15 0 11 7 21 17 21 24
0 14 19 37 30 37 4 0 6 -10 4 -22z"/>
<path d="M287 338 c-3 -11 0 -18 9 -18 7 0 18 8 23 18 7 14 6 18 -9 18 -10 0
-21 -8 -23 -18z"/>
</g>
</svg>
